<svg xmlns="http://www.w3.org/2000/svg" width="34.7" height="34.7" viewBox="0 0 34.7 34.7">
  <path id="Path_19" data-name="Path 19" d="M17,0A17,17,0,1,0,34,17,17.009,17.009,0,0,0,17,0Zm1.951,29.609V22.517h0v-.45a.376.376,0,0,0-.375-.375H15.424a.376.376,0,0,0-.375.375v.45h0v7.093A12.782,12.782,0,0,1,4.391,18.951h7.543a.376.376,0,0,0,.375-.375V15.424a.376.376,0,0,0-.375-.375H4.391A12.782,12.782,0,0,1,15.049,4.391v7.093h0V11.9a.4.4,0,0,0,.375.375h3.152a.4.4,0,0,0,.375-.375v-.413h0V4.391A12.782,12.782,0,0,1,29.609,15.049H22.066a.376.376,0,0,0-.375.375v3.152a.376.376,0,0,0,.375.375h7.506A12.742,12.742,0,0,1,18.951,29.609Z" transform="translate(0.35 0.35)" fill="#fff" stroke="#686868" stroke-width="0.7"/>
</svg>
