<svg id="Layer_1" data-name="Layer 1" xmlns="http://www.w3.org/2000/svg" viewBox="0 0 19 16"><title>sendToPhone</title><path d="M-32.17,6a.5.5,0,0,1-.5.5h-7.5v1h7.5A1.5,1.5,0,0,0-31.17,6V-4h-1Z" transform="translate(50.17 7.5)" style="fill:#fff"/><path d="M-49.67,8.5a.49.49,0,0,0,.31-.11l4.81-3.78a.51.51,0,0,1,.31-.11h8.57A1.5,1.5,0,0,0-34.17,3V-6a1.5,1.5,0,0,0-1.5-1.5h-13A1.5,1.5,0,0,0-50.17-6V8a.5.5,0,0,0,.28.45A.59.59,0,0,0-49.67,8.5Zm.5-6.79V-6a.5.5,0,0,1,.5-.5h13a.5.5,0,0,1,.5.5V3a.5.5,0,0,1-.5.5h-8.57a1.52,1.52,0,0,0-.93.32l-4,3.15Z" transform="translate(50.17 7.5)" style="fill:#fff"/><circle cx="4" cy="6" r="1" style="fill:#fff"/><circle cx="8" cy="6" r="1" style="fill:#fff"/><circle cx="12" cy="6" r="1" style="fill:#fff"/></svg>